<?xml version="1.0" encoding="UTF-8"?>
<svg id="images" xmlns="http://www.w3.org/2000/svg" viewBox="0 0 1920 1080">
  <defs>
    <style>
      .cls-1 {
        letter-spacing: -.02em;
      }

      .cls-2 {
        letter-spacing: 0em;
      }

      .cls-3, .cls-4 {
        fill: #c7c8c9;
      }

      .cls-5 {
        letter-spacing: 0em;
      }

      .cls-6 {
        letter-spacing: 0em;
      }

      .cls-7 {
        letter-spacing: 0em;
      }

      .cls-8 {
        letter-spacing: -.01em;
      }

      .cls-9 {
        letter-spacing: -.02em;
      }

      .cls-10 {
        letter-spacing: 0em;
      }

      .cls-11 {
        letter-spacing: -.02em;
      }

      .cls-12 {
        letter-spacing: -.02em;
      }

      .cls-4 {
        font-size: 60.03px;
      }

      .cls-4, .cls-13 {
        font-family: Inter-Regular, Inter;
        font-variation-settings: 'opsz' 14, 'wght' 400;
      }

      .cls-14 {
        letter-spacing: -.08em;
      }

      .cls-13 {
        fill: #fff;
        font-size: 25.57px;
      }

      .cls-15 {
        letter-spacing: -.02em;
      }
    </style>
  </defs>
  <path class="cls-3" d="M807.57,324.07c0-3.43-4.16-5.27-14.12-6.66-27.13-3.65-53.21,26.97-54.35,28.27-.54.6-.7,1.49-.41,2.25l8.85,28.02c.38,1.11,1.46,1.78,2.6,1.71,1.14-.16,2.03-1.11,2.09-2.25l1.4-14.85h17.96l8.12,17.13v-.03c.38.79,1.14,1.3,2.03,1.4.82,0,1.59-.44,2.03-1.14l11.11-16.82c4.06-1.62,11.93-5.36,12.66-9.84h.03c.19-1.68-.54-3.33-1.97-4.28-1.14-.95-2.41-1.78-3.71-2.44,3.33-1.94,6.57-4.38,7.14-6.92.32-1.27,0-2.6-.89-3.55-1.65-1.68-3.65-3.01-5.87-3.84,3.59-1.62,5.46-3.74,5.3-6.16h0ZM804.08,336.73c-2.92,2.6-6.28,4.66-9.93,6.09-1.11.41-1.71,1.62-1.36,2.76.22,1.14,1.27,1.94,2.44,1.87,2.73.22,5.33,1.27,7.46,3.01-2.86,2.92-6.41,5.11-10.31,6.31-.48.19-.92.51-1.21.89l-9.11,14.06-6.66-14.53c-.41-.82-1.27-1.36-2.19-1.36h-21.86c-1.24,0-2.25.95-2.35,2.19l-.48,5.11-4.79-15.2c4.63-5.11,27.13-28.53,48.74-25.51,3.24.25,6.41,1.02,9.42,2.22-2.57,1.43-5.3,2.51-8.12,3.24-1.05.35-1.75,1.3-1.75,2.38s.7,2.06,1.75,2.41c3.68.57,7.2,1.97,10.31,4.06h0ZM752.42,384.64v8.12h24.85v-9.74c0-1.33,1.08-2.44,2.44-2.44.63,0,1.27.25,1.75.7.44.48.7,1.11.67,1.75v12.12c0,1.33-1.08,2.41-2.41,2.41h-30.24c-.63.03-1.27-.22-1.68-.73-.48-.48-.76-1.11-.73-1.78l.48-10.63c0-.67.25-1.27.76-1.71.48-.44,1.11-.63,1.75-.57.67,0,1.3.29,1.75.76s.67,1.11.63,1.75h0ZM903.33,299.35c-16.25-2.35-27.8,0-34.43,5.68v.03c-3.46,3.08-5.46,7.46-5.46,12.09v87.23h-84.09c-1.33,0-2.41,1.11-2.41,2.44.03,1.33,1.11,2.41,2.41,2.44h3.01l-17.13,23.07-11.3-21.29h2.54c1.33,0,2.41-1.08,2.41-2.41v-6.03c0-1.33-1.08-2.44-2.41-2.44-.67,0-1.3.22-1.78.7-.44.48-.7,1.11-.67,1.75v3.65h-28.59c-1.05-.03-2,.6-2.38,1.55l-43.22,121.37c-.29.79-.13,1.68.41,2.35.44.57,1.14.92,1.87.89l131.84-12.5,10.25,5.11c.6.29,1.3.29,1.94,0,.7-.22,1.24-.76,1.46-1.46l4.7-13.17,14.15-1.46c.67-.06,1.27-.38,1.71-.89.38-.54.57-1.21.48-1.87l-2.19-11.2c-.19-1.21-1.21-2.09-2.44-2.13l-119.4,3.27,9.68-29.41c.35-1.27-.38-2.6-1.65-3.01-.6-.22-1.27-.19-1.84.13-.57.29-.98.79-1.14,1.43l-5.93,18.02h-22.43l25.83-72.54h20.88l14.31,26.97c.38.73,1.11,1.21,1.94,1.3.79.03,1.52-.32,1.97-.98l21.61-28.18c.06-.29.06-.6,0-.89h55.81l7.49,11.46-1.3,24.37-37.95-.57h-.03c-.7-.03-1.36.29-1.84.79-.44.54-.63,1.21-.57,1.87l2.92,29.89c.16,1.24,1.17,2.19,2.44,2.22.63-.06,1.24-.38,1.65-.89.41-.51.6-1.17.54-1.81l-2.67-27.13,76.6,1.14h-.03c.67-.03,1.3-.29,1.81-.73.41-.51.63-1.14.63-1.78,0-1.21-3.74-116.58-3.97-127.84v-.03c-.16-1.62.44-3.2,1.62-4.32,3.36-1.59,7.2-1.94,10.79-.95.73.13,1.49-.03,2.06-.51.57-.44.92-1.11.95-1.87v-10.47c.1-1.05-.51-2.03-1.46-2.44h0ZM722.11,488.46l-5.36,16.25c-.25.6-.19,1.3.1,1.87.29.6.82,1.05,1.43,1.21h.73c1.05,0,2-.63,2.38-1.62l1.78-5.62,119.18-3.17.89,6.57-13.01,1.81c-.92.16-1.68.76-2.03,1.65l-4.32,12.03-8.12-4.22v-.03c-.44-.06-.92-.06-1.36,0l-128.67,12.03,13.8-38.74h22.59ZM900.34,309.75h-.03c-4.16-.7-8.41.22-11.93,2.51-2.41,2-3.71,5.01-3.49,8.12,0,10.41,3.33,108.2,3.9,125.34l-34.21-.16,1.4-25.35v.03c-.03-.54-.16-1.02-.41-1.46l-6.19-9.52h13.58v6.41c.03,1.33,1.11,2.41,2.41,2.44,1.36,0,2.44-1.08,2.44-2.44v-98.62c.19-3.11,1.62-6.03,4-8.12,3.65-3.33,11.46-6.73,28.27-4.63l.25,5.46ZM721.38,539.8l-41.25,177.09,76.98,87.32c.54.44.82,1.11.82,1.81s-.29,1.36-.82,1.84c-.44.41-1.02.63-1.62.63-.7.03-1.36-.29-1.81-.79l-77.8-88.31c-.51-.6-.7-1.43-.48-2.19l41.5-178.71c.1-.7.48-1.3,1.02-1.68.57-.41,1.3-.54,1.97-.38.67.19,1.24.6,1.55,1.24.35.6.41,1.3.16,1.97l-.22.16ZM700.25,905.34h268.89c1.33,0,2.41-1.08,2.41-2.44s-1.08-2.44-2.41-2.44h-143.3l-3.74-2.82h.57c.86,0,1.68-.48,2.09-1.24l24.37-41.5c.63-.86.63-2,0-2.82l-8.76-10.25h.98c.67,0,1.33-.29,1.78-.82.48-.44.73-1.11.67-1.78l-17.23-270.73-2.44-24.37c-.06-.67-.38-1.27-.89-1.68-.51-.38-1.14-.6-1.78-.51-1.33.19-2.25,1.33-2.22,2.67l2.19,21.35-89.35,1.3h.03c-1.36.06-2.44,1.17-2.44,2.54.03,1.3,1.11,2.35,2.44,2.35l32.49-.48v73.52-.03c-.67.22-1.21.7-1.49,1.3l-20.63,53.69c-.38,1.08-.03,2.28.89,2.95l20.56,14.47h.57v121.85-.03c0,1.36,1.08,2.44,2.44,2.44h28.11v39.16h-18.28l.57-32.49h-.03c0-1.33-1.08-2.44-2.41-2.44-.63,0-1.27.22-1.75.67-.44.44-.7,1.05-.7,1.68l-.63,34.21v18.28h-71.58c-1.33,0-2.44,1.11-2.44,2.44s1.11,2.44,2.44,2.44v-.41ZM824.69,886.42v-25.61l15.04-11.61,4.16,4.79-19.2,32.43ZM747.68,700.13l16.82-43.63v55.5l-16.82-11.87ZM769.2,572.29l52.89-1.05,16.25,265.78h-68.95v-264.73h-.19,0ZM833.71,842.22l3.08,3.59-14.69,10.79-12.03-9.01c-1.08-.82-2.6-.6-3.4.48-.82,1.08-.6,2.6.48,3.43l12.6,9.42v34.36c-.13.44-.13.92,0,1.36l-19.83-14.85v-39.89l33.79.32ZM776.84,885.85h20.05l20.72,14.94h-41.19l.41-14.94ZM1226.63,526.4h-347.2c-1.33,0-2.41-1.11-2.41-2.44v-37.95c0-1.33,1.08-2.44,2.41-2.44,1.33.06,2.41,1.11,2.44,2.44v35.51h342.31v-77.58l-77.17-110.39-52.96,52.55c-.48.48-1.08.76-1.75.76s-1.3-.29-1.75-.76c-.95-.95-.95-2.51,0-3.49l54.99-54.58c.54-.48,1.24-.7,1.94-.63.73,0,1.4.35,1.81.95l74.88,107.06V179.14h-342.31v97.48c-.03,1.3-1.11,2.38-2.44,2.41-1.33,0-2.41-1.08-2.41-2.41v-99.92c-.03-.67.22-1.3.67-1.75.48-.48,1.11-.73,1.75-.7h347.2c.63-.03,1.27.22,1.75.7.44.44.7,1.08.7,1.75v347.26c0,.63-.25,1.27-.73,1.71-.44.48-1.08.73-1.71.73h0ZM978.3,290.83l118.99,129.97c.95.92.95,2.44,0,3.4-.41.44-1.02.67-1.62.67-.67,0-1.3-.29-1.78-.73l-117.47-128.04-67.74,74.98c-.98.92-2.51.92-3.49,0-.92-.95-.92-2.48,0-3.43l69.52-77.01c.51-.48,1.17-.79,1.87-.79.7.03,1.33.41,1.71.98h0ZM1119.41,262.05c0-18.72-11.3-35.6-28.59-42.77-17.29-7.17-37.22-3.2-50.45,10.06-13.26,13.23-17.23,33.16-10.06,50.45,7.17,17.29,24.05,28.59,42.77,28.59,25.57-.06,46.26-20.75,46.33-46.33ZM1031.67,262.05c.03-16.72,10.15-31.83,25.64-38.2,15.45-6.38,33.29-2.82,45.09,9.04,11.84,11.84,15.39,29.67,8.95,45.12-6.41,15.48-21.51,25.57-38.27,25.57-22.88-.06-41.41-18.63-41.41-41.54Z"/>
  <text class="cls-4" transform="translate(880.96 651.75)"><tspan x="0" y="0">No Pictu</tspan><tspan class="cls-15" x="240.4" y="0">r</tspan><tspan x="262" y="0">es</tspan></text>
  <text class="cls-13" transform="translate(845.91 696.26)"><tspan x="0" y="0">Captu</tspan><tspan class="cls-9" x="72.19" y="0">r</tspan><tspan x="81.39" y="0">e n</tspan><tspan class="cls-11" x="118.6" y="0">e</tspan><tspan class="cls-6" x="133.05" y="0">w momen</tspan><tspan class="cls-7" x="251.33" y="0">t</tspan><tspan x="259.45" y="0">s or Upl</tspan><tspan class="cls-10" x="353.17" y="0">o</tspan><tspan x="368.76" y="0">ad</tspan></text>
  <text class="cls-13" transform="translate(917.48 730.72)"><tspan class="cls-14" x="0" y="0">Y</tspan><tspan x="15.4" y="0">our </tspan><tspan class="cls-1" x="62.67" y="0">f</tspan><tspan class="cls-8" x="71.74" y="0">a</tspan><tspan class="cls-12" x="85.72" y="0">v</tspan><tspan x="99.6" y="0">o</tspan><tspan class="cls-2" x="114.93" y="0">r</tspan><tspan class="cls-5" x="124.81" y="0">i</tspan><tspan class="cls-7" x="131" y="0">t</tspan><tspan class="cls-5" x="139.12" y="0">e images.</tspan></text>
</svg>
