<?xml version="1.0" encoding="UTF-8"?>
<svg id="Layer_1" data-name="Layer 1" xmlns="http://www.w3.org/2000/svg" viewBox="0 0 1920 1080">
  <path d="M1043.1,644.35c17.28,3.08,34.64,6.93,51.57,11.45,6.97,1.86,13.88,3.88,20.72,5.96,66.73-77.13,63.54-194.22-9.7-267.45-76.63-76.63-201.33-76.63-277.96,0-.58.58-1.11,1.19-1.68,1.77,37.14,7.98,74.93,12.49,112.95,13.49,13.05-2.27,26.41-2.34,39.48-.2.11,0,.23,0,.34,0,.96-.04,1.87.17,2.7.52,22.48,4.28,43.96,15.1,61.36,32.51.51.51,1.01,1.03,1.5,1.55.14.13.27.26.41.39.46.44.9.88,1.36,1.33,11.82,12.26,20.39,25.12,26.13,38.16l-9.76,9.76,17.82,17.82c1.54,10.14,1.56,20.21.25,30.02l-15.73,15.73-33.49-33.49-30.51,30.51,33.22,33.22,30.3-30.3,9.75,9.75c-5.29,13.94-13.21,26.88-23.08,38.15l-17.28-17.28-30.3,30.3-33.49-33.49-30.03,30.03-32.59-32.59-29.5,29.5c-.69-.65-1.37-1.32-2.05-2-46.14-46.14-46.14-120.94,0-167.08,9.18-9.18,19.5-16.5,30.5-22.03-30.26-2.36-60.3-6.9-89.92-13.62-65.04,77.14-61.29,192.91,11.34,265.54,76.63,76.63,201.33,76.63,277.96,0,.11-.11.21-.23.32-.34-4.83-1.41-9.69-2.78-14.56-4.08-16.59-4.43-33.6-8.2-50.58-11.22-1-.18-1.95-.35-2.9-.51-17.14-2.96-34.6-5.23-51.92-6.73-2.4-.21-4.77-.4-7.11-.57-1.14-.08-2.26-.16-3.39-.24l-.52.52-.6-.6c-.24-.02-.48-.04-.72-.05-3.01-.2-6.08-.36-9.14-.51-15.36.6-31.14-2.03-46.64-8.71l24.38-24.38,20.5,20.5c3.94.19,7.86.4,11.71.66,1.75.11,3.54.24,5.35.37,1.75.13,3.54.28,5.33.43l19.39-19.39,14.27,14.27,10.39,10.39c3.62.56,7.23,1.13,10.82,1.75.99.17,2.01.34,3.03.53Z"/>
  <path d="M795.25,401.55c-38.73-10.22-76.21-24.05-112.11-41.35,1.86,1.54,3.71,3.08,5.57,4.65,47.91,40.23,75.57,69.9,84.07,90.26,7.44-18.45,17.55-35.81,30.12-51.61-2.55-.64-5.11-1.27-7.65-1.94Z"/>
  <path d="M1141.94,683.67c-4.9-1.77-9.9-3.51-14.86-5.16-2.15-.71-4.3-1.42-6.43-2.1-.43-.14-.87-.26-1.3-.4-1.59,1.7-3.17,3.41-4.83,5.07-39.48,39.48-91.97,61.22-147.8,61.22s-108.32-21.74-147.8-61.22c-39.48-39.48-61.22-91.97-61.22-147.8,0-21.73,3.33-42.94,9.68-63.08-2.21-.64-3.99-2.46-4.42-4.88-1.69-9.57-14.63-34.11-82.22-90.87-15.43-12.96-30.78-25.12-43.75-35.13-36.27,58.25-57.24,127.01-57.24,200.68,0,210,170.24,380.24,380.24,380.24,131.66,0,247.68-66.92,315.93-168.6-41.77-28.07-86.7-50.88-134-67.98Z"/>
  <path d="M798.43,389.49c4.47,1.18,8.96,2.29,13.46,3.37,2.28-2.51,4.62-4.97,7.03-7.38,39.48-39.48,91.97-61.22,147.8-61.22,55.83,0,108.32,21.74,147.8,61.22,39.48,39.48,61.22,91.97,61.22,147.8,0,23.29-3.83,45.97-11.11,67.4,1.42.99,2.44,2.54,2.65,4.4,1.09,9.66,12.44,34.96,76.3,95.89,14.36,13.71,28.7,26.63,40.9,37.35,35.37-57.74,55.77-125.65,55.77-198.32,0-210-170.24-380.24-380.24-380.24-130.69,0-245.96,65.94-314.41,166.35,47.89,27.94,99.13,49.22,152.84,63.38Z"/>
  <path d="M1146.18,671.94c32.59,11.78,64.07,26.24,94.21,43.19-1.79-1.68-3.57-3.37-5.36-5.08-6.09-5.81-11.84-11.41-17.22-16.8-32.73-32.73-52.48-57.66-59.81-75.54-7.59,17.18-17.48,33.36-29.61,48.1.88.29,1.75.57,2.64.86,5.06,1.68,10.16,3.45,15.17,5.26Z"/>
  <rect x="948.07" y="529.59" width="42.4" height="46.09" transform="translate(-106.88 847.24) rotate(-45)"/>
  <polygon points="1061.94 493.09 1029.26 460.4 999.23 490.43 999.06 490.26 998.58 490.74 1031.43 523.6 1061.94 493.09"/>
</svg>