<?xml version="1.0" encoding="UTF-8"?>
<svg id="Layer_2" data-name="Layer 2" xmlns="http://www.w3.org/2000/svg" viewBox="0 0 516.22 543.84">
  <defs>
    <style>
      .cls-1 {
        font-family: InterItalic-MediumItalic, Inter;
        font-size: 36px;
        font-style: italic;
        font-variation-settings: 'opsz' 14, 'wght' 500;
        font-weight: 500;
      }

      .cls-1, .cls-2 {
        fill: #88949e;
      }

      .cls-3 {
        letter-spacing: -.02em;
      }

      .cls-4 {
        letter-spacing: .02em;
      }

      .cls-5 {
        letter-spacing: -.02em;
      }
    </style>
  </defs>
  <g id="images">
    <g>
      <path class="cls-2" d="M369.03,304.9c0,19.56-15.87,35.44-35.44,35.44s-35.44-15.87-35.44-35.44,15.87-35.44,35.44-35.44,35.44,15.87,35.44,35.44Z"/>
      <path class="cls-2" d="M411.55,205.67c0,19.56-15.87,35.44-35.44,35.44s-35.44-15.87-35.44-35.44,15.87-35.44,35.44-35.44,35.44,15.87,35.44,35.44Z"/>
      <path class="cls-2" d="M269.8,347.42c0,19.56-15.87,35.44-35.44,35.44s-35.44-15.87-35.44-35.44,15.87-35.44,35.44-35.44,35.44,15.87,35.44,35.44Z"/>
      <path class="cls-2" d="M142.22,234.02c0,19.56-15.87,35.44-35.44,35.44s-35.44-15.87-35.44-35.44,15.87-35.44,35.44-35.44,35.44,15.87,35.44,35.44Z"/>
      <path class="cls-2" d="M298.15,78.09c0,19.56-15.87,35.44-35.44,35.44s-35.44-15.87-35.44-35.44,15.87-35.44,35.44-35.44,35.44,15.87,35.44,35.44Z"/>
      <path class="cls-2" d="M50.17,305.65c1.24,2.51,3.73,3.97,6.39,3.97,1.03,0,2.12-.24,3.12-.7,3.49-1.7,4.97-5.96,3.27-9.51-10.39-21.21-16.78-43.8-18.99-67.15-2.12-22.35-.61-44.56,4.54-65.97,1.03-4.36,3.88-7.66,7.99-9.39,4.36-1.79,9.39-1.42,13.57,1.09,16.91,10.26,36.38,14.18,56.28,11.33,36.99-5.24,66.52-34.77,71.78-71.78,2.84-19.9-1.09-39.31-11.33-56.22-2.51-4.12-2.93-9.21-1.09-13.57,1.7-4.12,5.06-6.94,9.39-7.99,21.41-5.15,43.62-6.66,65.97-4.54,29.96,2.88,58.31,12.42,84.24,28.44,3.36,2.09,7.7,1.03,9.73-2.31,2.09-3.3,1.03-7.7-2.31-9.73-27.78-17.15-58.16-27.45-90.35-30.53-23.9-2.27-47.68-.66-70.64,4.87-8.69,2.09-15.69,8.03-19.18,16.35-3.54,8.51-2.79,18.38,2.03,26.36,8.55,14.08,11.81,30.29,9.45,46.92-4.39,30.81-28.92,55.37-59.73,59.73-16.63,2.36-32.84-.9-46.92-9.45-7.99-4.82-17.87-5.63-26.36-2.03-8.27,3.45-14.23,10.45-16.35,19.18-5.48,22.96-7.14,46.73-4.87,70.64,2.42,25.05,9.27,49.28,20.36,72.06l.02-.08Z"/>
      <path class="cls-2" d="M422.55,101.57c-2.09-3.3-6.42-4.36-9.73-2.31-3.3,2.09-4.36,6.42-2.31,9.73,16.35,26.5,26.32,56.7,28.77,87.36,4.67,58.4-16.26,115.49-57.46,156.68-41.2,41.2-98.29,62.13-156.68,57.46-24.44-1.94-48.1-8.45-70.36-19.38-3.49-1.7-7.75-.24-9.51,3.27-1.7,3.49-.28,7.75,3.27,9.51,23.87,11.67,49.25,18.66,75.46,20.75,5.76.48,11.48.7,17.2.7,56.42,0,110.56-22.2,150.63-62.28,44.13-44.13,66.58-105.32,61.57-167.84-2.64-32.89-13.27-65.3-30.81-93.69l-.06.04Z"/>
      <path class="cls-2" d="M295.6,204.06c46.4-46.4,88.23-91.96,117.76-128.19,45.74-56.19,43.71-66.72,37.71-72.72s-16.59-8.03-72.72,37.71c-36.25,29.53-81.75,71.36-128.19,117.76-61.15,61.15-114.1,120.73-140.39,157.68-16.63-8.18-33.83-4.67-49.1,10.54-20.51,20.51-30.66,83.3-31.75,90.39-.33,2.21.37,4.49,1.99,6.09,1.33,1.33,3.17,2.09,5,2.09.37,0,.7,0,1.09-.09,7.09-1.09,69.88-11.24,90.39-31.75,15.26-15.26,18.75-32.47,10.54-49.1,36.95-26.26,96.5-79.24,157.68-140.39h-.01ZM260.16,168.62c9.51-9.51,18.66-18.48,27.59-27.11l24.95,24.95c-8.64,8.93-17.63,18.09-27.11,27.59-6.52,6.52-12.99,12.9-19.47,19.23l-25.18-25.18c6.28-6.42,12.72-12.94,19.23-19.47l-.02-.02ZM125.96,328.24c-1.46-1.46-2.93-2.84-4.45-4.06,4.54-6.39,9.87-13.42,15.97-21.08l13.66,13.66c-7.66,6.05-14.69,11.44-21.08,15.97-1.27-1.51-2.6-2.97-4.06-4.45l-.04-.04Z"/>
    </g>
    <text class="cls-1" transform="translate(0 532.24)"><tspan x="0" y="0">The a</tspan><tspan class="cls-4" x="98" y="0">r</tspan><tspan x="112.55" y="0">tist is al</tspan><tspan class="cls-5" x="244.62" y="0">w</tspan><tspan class="cls-3" x="273.87" y="0">a</tspan><tspan x="295.61" y="0">ys beginning</tspan></text>
  </g>
</svg>