<?xml version="1.0" encoding="UTF-8"?>
<svg id="Layer_1" data-name="Layer 1" xmlns="http://www.w3.org/2000/svg" viewBox="0 0 1920 1080">
  <path d="M1388.19,464.09c-.93,1.93-2.79,3.35-5.07,3.58-.09,0-1.82.18-4.88.46l-.28.09h-.61c-63.17,8.6-124.33,26.62-181.8,53.57-4.81,2.25-9.65,4.6-14.41,6.98-2.06,1.03-4.11,2.07-6.14,3.12-9.05,4.66-18.2,9.66-27.18,14.85-15.13,8.75-30.09,18.28-44.48,28.33-.85.58-1.65,1.15-2.45,1.72-14.47,10.21-28.67,21.14-42.22,32.53-1.87,1.58-3.72,3.15-5.53,4.7-.88.76-1.74,1.51-2.61,2.27v.75h-.86c-.18.16-.37.32-.56.48-2.31,2.02-4.63,4.12-6.95,6.21-10.62,11.49-23.87,20.96-39.84,27.3v-35.1h29.51c2.97-2.7,5.94-5.37,8.9-7.95,1.34-1.18,2.72-2.38,4.12-3.58,1.36-1.17,2.75-2.35,4.15-3.53v-27.91h35.5c3.01-2.2,6.02-4.39,9.05-6.53.83-.59,1.69-1.2,2.56-1.8,14.65-10.22,29.92-19.95,45.36-28.88,9.16-5.3,18.49-10.4,27.72-15.15,2.06-1.06,4.16-2.12,6.26-3.18,4.86-2.43,9.8-4.83,14.7-7.13,31.94-14.98,65-27.23,98.9-36.72-2.49.07-5,.14-7.52.2-8.57.2-16.73.3-24.49.3-57.97,0-93.31-5.65-107.75-17.17-2.74-2.19-3.19-6.18-1-8.92,2.19-2.74,6.18-3.19,8.92-1,7.73,6.17,34.12,16.21,123.95,14.1,41.67-.98,80.92-4.25,95.09-5.53l4.39-.57c.61-.08,1.2-.04,1.77.05,1.68-.02,3.23.62,4.39,1.7-38.85-200.3-215.15-351.54-426.81-351.54-240.14,0-434.81,194.67-434.81,434.81,0,31.94,3.48,63.07,10.01,93.05.93-1.01,2.17-1.75,3.63-1.99.09-.01,1.7-.28,4.55-.72,68.24-13.57,133.22-38.12,193.16-73.04,41.81-24.35,80.55-53.45,115.63-86.74,7.76-11.03,17.33-20.69,28.27-28.57.08-.08.16-.17.24-.25.67-.72,1.47-1.23,2.32-1.57,19.26-13.1,42.51-20.77,67.57-20.77.74,0,1.47.01,2.2.03.19,0,.38,0,.57-.01.64-.02,1.29-.02,1.94-.02,17.33.32,32.76,3.4,46.27,8.66v14.05h25.66c8.41,6.19,15.67,13.43,21.79,21.43v22.65h-48.21v43.92h47.83v-43.61h14.03c6.23,13.84,9.84,28.86,10.85,44.07h-24.88v43.62h-48.21v43.23h-46.92v42.47c-.97.03-1.94.04-2.91.04-66.42,0-120.26-53.84-120.26-120.26,0-13.21,2.16-25.92,6.1-37.81-29.08,24.88-60.33,47.11-93.47,66.41-35.23,20.53-72.17,37.54-110.47,50.93,2.44-.23,4.89-.45,7.36-.67,72.36-6.3,115.88-3.53,133.04,8.47,2.87,2.01,3.57,5.97,1.56,8.84-2.01,2.87-5.97,3.57-8.84,1.57-8.11-5.67-35.08-14.02-124.59-6.23-42.36,3.69-82.06,9.59-95.38,11.66-1.18.23-2.35.49-3.53.72-.41.08-.81.12-1.21.12-.17,0-.33-.03-.5-.04-.17.01-.35.04-.52.04-.8,0-1.58-.16-2.3-.44,46.34,190.3,217.88,331.57,422.44,331.57,240.14,0,434.81-194.67,434.81-434.81,0-25.9-2.28-51.26-6.62-75.91Z"/>
  <polygon points="1000.79 442.19 953.73 442.19 953.73 485.42 953.48 485.42 953.48 486.11 1000.79 486.11 1000.79 442.19"/>
  <rect x="953.48" y="530.19" width="46.92" height="43.16"/>
</svg>