<?xml version="1.0" encoding="UTF-8"?>
<svg id="Layer_1" data-name="Layer 1" xmlns="http://www.w3.org/2000/svg" viewBox="0 0 1920 1080">
  <path d="M948.62,362.21v355.57c-1.43.05-2.86.06-4.31.06-98.22,0-177.84-79.62-177.84-177.84s79.62-177.84,177.84-177.84c1.44,0,2.88.01,4.31.06Z"/>
  <g>
    <path d="M338.47,693.81c-4.41,0-8.34-3.12-9.21-7.61-.98-5.09,2.35-10.01,7.44-11,102.92-19.84,200.86-56.55,291.11-109.13,79.08-46.07,150.79-103.56,213.16-170.89,3.52-3.8,9.46-4.03,13.27-.51,3.8,3.52,4.03,9.46.51,13.27-63.63,68.69-136.8,127.35-217.48,174.35-92.08,53.64-192,91.1-297,111.34-.6.12-1.2.17-1.79.17Z"/>
    <path d="M336.96,693.81c-4.51,0-8.49-3.26-9.25-7.86-.84-5.12,2.62-9.94,7.74-10.79.71-.12,72.07-11.8,149.35-18.53,107-9.32,171.36-5.22,196.74,12.52,4.25,2.97,5.29,8.82,2.31,13.07-2.97,4.25-8.82,5.29-13.07,2.31-11.99-8.39-51.87-20.73-184.24-9.21-76.57,6.66-147.33,18.24-148.03,18.35-.52.08-1.03.13-1.54.13Z"/>
  </g>
  <g>
    <path d="M1055.27,683.53c-2.48,0-4.96-.98-6.81-2.92-3.57-3.76-3.42-9.7.34-13.27,9.54-9.07,19.25-17.92,28.84-26.31,1.98-1.75,4.03-3.52,6.09-5.3,2.73-2.35,5.52-4.72,8.35-7.1,20.45-17.18,41.86-33.68,63.66-49.05,1.23-.87,2.5-1.77,3.79-2.66,21.66-15.11,44.25-29.5,67.07-42.71,13.55-7.84,27.34-15.37,41-22.4,3.05-1.57,6.15-3.14,9.26-4.7,7.18-3.6,14.49-7.14,21.75-10.54,86.66-40.65,178.9-67.83,274.16-80.81h.02s.59-.08.59-.08c.04,0,.08-.01.12-.02l6.82-.89c5.16-.67,9.85,2.97,10.51,8.11.66,5.14-2.97,9.85-8.11,10.51l-5.8.76-.59.19h-.9c-93.42,12.72-183.86,39.37-268.84,79.23-7.11,3.33-14.27,6.81-21.3,10.33-3.05,1.53-6.08,3.06-9.08,4.61-13.39,6.89-26.91,14.28-40.19,21.96-22.37,12.95-44.5,27.04-65.78,41.89-1.25.86-2.45,1.7-3.63,2.54-21.4,15.09-42.39,31.27-62.43,48.1-2.77,2.33-5.5,4.65-8.17,6.96-2.01,1.73-4,3.46-5.96,5.18-9.42,8.24-18.93,16.92-28.29,25.81-1.82,1.73-4.14,2.58-6.47,2.58Z"/>
    <path d="M1397.53,443.01c-85.72,0-137.99-8.36-159.34-25.39-4.05-3.23-4.72-9.14-1.48-13.19,3.23-4.05,9.14-4.72,13.19-1.48,11.44,9.13,50.46,23.97,183.29,20.85,76.84-1.8,148.19-8.88,148.9-8.95,5.16-.52,9.76,3.25,10.28,8.41.52,5.16-3.25,9.76-8.4,10.28-.72.07-72.68,7.21-150.22,9.04-12.67.3-24.75.45-36.21.45Z"/>
  </g>
  <path d="M1110.05,461.36h-20.75v64.5h-70.73v-64.95h71.29v-33.49c-9.05-11.83-19.79-22.53-32.22-31.68h-37.94v-20.77c-19.98-7.77-42.8-12.33-68.43-12.8-.96,0-1.91,0-2.86.02-.48.01-.96.02-1.44.04v97.56h2.02v-63.93h69.59v64.95h-71.29v64.5h-.32v129.68h71.04v-63.93h71.29v-64.51h36.79c-1.49-22.5-6.83-44.71-16.04-65.18ZM1018.01,589.8h-70.73v-63.83h70.73v63.83Z"/>
  <path d="M1120.24,589.23c-4.72,18.12-12.09,35.49-22.11,51.27-2.57,4.08-5.33,8.05-8.26,11.91-.09.12-.2.25-.29.38-17.04,22.25-39.96,40.47-68.73,51.9v-51.9h62.98c1.98-1.75,4-3.5,6.04-5.26v-58.3h30.37Z"/>
  <path d="M1019.7,374.96v20.89h-71.29v-33.67c.95-.02,1.9-.02,2.86-.02,25.63.47,48.44,5.03,68.43,12.8Z"/>
  <rect x="877.7" y="394.6" width="71.29" height="65.18"/>
  <rect x="1018.01" y="525.86" width="71.29" height="65.19"/>
  <rect x="1089.87" y="652.79" width="2.26" height="1.63"/>
  <path d="M1161.16,589.23v2.71c-23.33,16.45-44.32,32.85-63.03,48.56-2.57,4.08-5.33,8.05-8.26,11.91v-63.18h71.29Z"/>
  <rect x="946.72" y="589.8" width="71.29" height="65.18"/>
  <path d="M1089.87,427.41v33.49h-71.29v-65.18h39.07c12.44,9.15,23.18,19.86,32.22,31.68Z"/>
  <path d="M1126.09,526.54h-36.79v-65.18h20.75c9.21,20.47,14.55,42.68,16.04,65.18Z"/>
  <rect x="805.84" y="460.23" width="71.29" height="65.18"/>
  <rect x="876" y="525.3" width="71.29" height="65.18"/>
  <rect x="947.29" y="460.8" width="71.29" height="65.18"/>
</svg>