<?xml version="1.0" encoding="UTF-8"?>
<svg id="Layer_1" data-name="Layer 1" xmlns="http://www.w3.org/2000/svg" viewBox="0 0 1920 1080">
  <defs>
    <style>
      .cls-1 {
        fill: #FFFFFF;
      }
    </style>
  </defs>
  <path class="cls-1" d="M467.19,636.05v-186.39h23.77v63.8l-.37,40.15.37,11.64v70.81h-23.77ZM483.45,582.76v-25.4c4.25-5.83,8.49-11.42,12.7-16.76,4.21-5.33,8.53-10.55,12.95-15.64,4.42-5.09,8.96-10.13,13.63-15.13l55.67-60.17h31.15l-79.56,85.32-1.25-.12-45.29,47.91ZM581.53,636.05l-67.43-94.83,14.76-18.51,80.81,113.34h-28.15Z"/>
  <path class="cls-1" d="M712.25,637.55c-14.68,0-27.5-2.87-38.47-8.63-10.97-5.76-19.45-13.64-25.46-23.65-6.01-10.01-9.01-21.39-9.01-34.15v-122.97h23.77v121.09c0,8.93,1.98,16.87,5.94,23.83,3.96,6.97,9.61,12.45,16.95,16.45,7.34,4,16.09,6,26.27,6s18.91-2,26.21-6c7.3-4.01,12.9-9.49,16.83-16.45,3.92-6.96,5.88-14.9,5.88-23.83v-121.09h23.77v122.97c0,12.76-3,24.15-9.01,34.15-6,10.01-14.45,17.89-25.33,23.65-10.88,5.75-23.67,8.63-38.34,8.63Z"/>
  <path class="cls-1" d="M1025.87,636.05v-186.39h28.02l75.81,119.22c2,3.08,4.42,7.05,7.26,11.89,2.83,4.84,5.9,10.3,9.19,16.39,3.29,6.09,6.52,12.59,9.7,19.52h-3.38c-.75-7.17-1.29-14.03-1.63-20.58-.33-6.55-.54-12.57-.63-18.08s-.12-10.17-.12-14.01v-114.34h23.77v186.39h-28.27l-67.55-106.08c-3.09-4.92-6.19-9.99-9.32-15.2-3.13-5.21-6.69-11.38-10.7-18.51-4-7.13-8.97-15.95-14.89-26.46h4.38c.42,9.26.79,17.81,1.13,25.65.33,7.84.6,14.68.81,20.51.21,5.84.31,10.43.31,13.76v106.33h-23.89Z"/>
  <path class="cls-1" d="M1242.66,449.66v186.39h-23.77v-186.39h23.77Z"/>
  <path class="cls-1" d="M1272.31,636.05l72.93-104.21v17.64l-68.8-99.83h27.52l26.9,39.53c4,5.84,7.28,10.76,9.82,14.76,2.54,4.01,4.88,7.92,7.01,11.76s4.52,8.42,7.19,13.76h-4.13c2.67-5.25,5.07-9.8,7.19-13.64,2.13-3.83,4.5-7.78,7.13-11.82,2.63-4.04,5.94-8.98,9.94-14.82l27.4-39.53h26.9l-68.68,98.82v-17.51l72.18,105.08h-27.4l-32.65-47.29c-3.5-5.17-6.46-9.61-8.88-13.32-2.42-3.71-4.67-7.42-6.75-11.14-2.09-3.71-4.42-8.15-7.01-13.32h5.13c-2.5,4.92-4.82,9.24-6.94,12.95-2.13,3.71-4.42,7.46-6.88,11.26-2.46,3.8-5.53,8.32-9.19,13.57l-32.9,47.29h-27.02Z"/>
  <g fill="#FFFFFF">
    <polygon points="903.27 532.46 903.22 532.46 903.22 532.59 912.28 532.59 912.28 524.18 903.27 524.18 903.27 532.46"/>
    <rect x="903.22" y="541.04" width="8.99" height="8.27"/>
    <path d="M904.69,446.07c-46.75,0-84.66,43.33-84.66,96.79s37.9,96.79,84.66,96.79,84.66-43.33,84.66-96.79-37.9-96.79-84.66-96.79ZM912.21,557.76h-8.99v8.14c-.19,0-.37,0-.56,0-12.73,0-23.04-10.32-23.04-23.04,0-2.54.43-4.98,1.19-7.27-5.58,4.77-11.57,9.05-17.93,12.75-6.78,3.95-13.9,7.2-21.28,9.77.5-.05,1.01-.09,1.52-.14,13.86-1.21,22.2-.68,25.49,1.62.55.39.68,1.14.3,1.69-.38.55-1.14.68-1.69.3-1.55-1.09-6.72-2.69-23.87-1.19-8.28.72-16,1.88-18.4,2.25-.18.04-.36.08-.55.12-.08.02-.16.02-.23.02-.02,0-.04,0-.06-.01-.04,0-.09.01-.13.01-.59,0-1.1-.42-1.2-1.02-.11-.66.34-1.29,1-1.4.01,0,.29-.05.74-.12,13.13-2.6,25.62-7.3,37.15-14.02,8.05-4.69,15.5-10.3,22.24-16.72,1.45-2.04,3.23-3.83,5.26-5.3.04-.04.08-.08.12-.12.13-.14.28-.23.44-.29,3.69-2.51,8.15-3.99,12.95-3.99.14,0,.28,0,.42,0,.04,0,.07,0,.11,0,.12,0,.25,0,.37,0,3.32.06,6.28.65,8.87,1.66v2.69h4.92c1.61,1.19,3,2.57,4.18,4.1v4.34h-9.24v8.42h9.16v-8.36h2.69c1.19,2.65,1.89,5.53,2.08,8.45h-4.77v8.36h-9.24v8.28ZM985.54,529.06s-.35.03-.94.09l-.05.02h-.12c-12.1,1.65-23.82,5.1-34.84,10.27-.92.43-1.85.88-2.76,1.34-.4.2-.79.4-1.18.6-1.74.89-3.49,1.85-5.21,2.85-2.9,1.68-5.77,3.5-8.52,5.43-.16.11-.32.22-.47.33-2.77,1.96-5.49,4.05-8.09,6.23-.36.3-.71.6-1.06.9-.17.15-.33.29-.5.44v.14h-.17s-.07.06-.11.09c-.53.47-1.07.98-1.6,1.46-.61.64-1.27,1.24-1.97,1.8-.03.03-.06.05-.09.08,0,0,0,0-.01,0-1.55,1.23-3.3,2.28-5.29,3.07v-6.72h5.69c.56-.51,1.11-1.04,1.67-1.52.26-.23.52-.46.79-.69.26-.22.53-.45.79-.68v-5.35h6.84c.57-.41,1.12-.85,1.7-1.25.16-.11.32-.23.49-.34,2.81-1.96,5.73-3.82,8.69-5.53,1.76-1.02,3.54-1.99,5.31-2.9.4-.2.8-.41,1.2-.61.93-.47,1.88-.93,2.82-1.37,6.14-2.88,12.5-5.22,19.02-7.04-.5.01-1,.03-1.51.04-1.64.04-3.21.06-4.69.06-11.11,0-17.88-1.08-20.65-3.29-.53-.42-.61-1.18-.19-1.71.42-.53,1.18-.61,1.71-.19,1.48,1.18,6.54,3.11,23.75,2.7,8-.19,15.52-.82,18.23-1.06l.84-.11c.07,0,.12.01.19.01.01,0,.04,0,.04,0,.09,0,.17.02.25.02,0,0,0,0,0,0,.56.06,1.02.48,1.08,1.06.07.67-.42,1.26-1.09,1.33Z"/>
  </g>
</svg>

